<?xml version="1.0" encoding="utf-8"?>
<!-- Generator: Adobe Illustrator 19.0.0, SVG Export Plug-In . SVG Version: 6.00 Build 0)  -->
<svg version="1.1" xmlns="http://www.w3.org/2000/svg" xmlns:xlink="http://www.w3.org/1999/xlink" x="0px" y="0px"
	 viewBox="0 0 241.6 303" enable-background="new 0 0 241.6 303" xml:space="preserve">
<g id="Layer_8">
	<g id="background">
		<path id="XMLID_730_" fill-rule="evenodd" clip-rule="evenodd" fill="#FFFFFF" d="M66.2,70.9c1.6,0,3,1,3.3,2.3c0.1,0,0.2,0,0.3,0
			c1.4,0,2.6,1,2.6,2.2c0,1.2-1.1,2.2-2.6,2.2c-0.6,0-1.2-0.2-1.7-0.5c-0.5,0.4-1.1,0.6-1.8,0.6c-0.9,0-1.6-0.4-2.1-0.9
			c-0.3,0.5-0.9,0.9-1.6,0.9c-0.5,0-1-0.2-1.3-0.5c-0.2,0.1-0.4,0.3-0.7,0.3c-0.2,0-0.3,0.1-0.5,0.1c-1,0-1.7-0.7-1.7-1.5
			c0-0.8,0.8-1.5,1.7-1.5c0.1,0,0.3,0,0.4,0c0.5-0.7,1.3-1.3,2.3-1.5C63.3,71.8,64.6,70.9,66.2,70.9z"/>
		<path id="XMLID_729_" fill-rule="evenodd" clip-rule="evenodd" fill="#FFFFFF" d="M182.8,82.6c1.6,0,3,1,3.3,2.3
			c0.1,0,0.2,0,0.3,0c1.4,0,2.6,1,2.6,2.2c0,1.2-1.1,2.2-2.6,2.2c-0.6,0-1.2-0.2-1.7-0.5c-0.5,0.4-1.1,0.6-1.8,0.6
			c-0.9,0-1.6-0.4-2.1-0.9c-0.3,0.5-0.9,0.9-1.6,0.9c-0.5,0-1-0.2-1.3-0.5c-0.2,0.1-0.4,0.3-0.7,0.3c-0.2,0-0.3,0.1-0.5,0.1
			c-1,0-1.7-0.7-1.7-1.5c0-0.8,0.8-1.5,1.7-1.5c0.1,0,0.3,0,0.4,0c0.5-0.7,1.3-1.3,2.3-1.5C179.9,83.6,181.2,82.6,182.8,82.6z"/>
		<path id="XMLID_728_" fill-rule="evenodd" clip-rule="evenodd" fill="#FFFFFF" d="M39.7,64.6c1,0,1.8,0.4,2.4,0.9
			c0.3-0.1,0.6-0.2,0.9-0.2c0.7,0,1.3,0.3,1.8,0.7C45,66,45.1,66,45.3,66c0.9,0,1.6,0.6,1.6,1.4c0,0.8-0.7,1.4-1.6,1.4
			c-0.2,0-0.4,0-0.5-0.1c-0.4,0.4-1.1,0.7-1.8,0.7c-0.3,0-0.7-0.1-1-0.2c-0.6,0.5-1.4,0.9-2.3,0.9c-1,0-2-0.4-2.6-1.1
			C37,69,36.8,69,36.5,69c-1.1,0-2-0.8-2-1.7c0-0.9,0.9-1.7,2-1.7c0.2,0,0.4,0,0.6,0.1C37.7,65,38.7,64.6,39.7,64.6z"/>
		<g id="XMLID_725_">
			<rect id="XMLID_727_" x="240.1" y="102.6" fill-rule="evenodd" clip-rule="evenodd" fill="#D0DBE8" width="0.3" height="1.1"/>
			<polygon id="XMLID_726_" fill-rule="evenodd" clip-rule="evenodd" fill="#D0DBE8" points="240.3,102.6 240.3,103.7 239.6,103.7 
				239.6,114.1 240.1,114.1 240.1,140.3 0,140.3 0,98.7 12,98.7 12,115.5 19.6,115.5 19.6,113.9 18.8,113.9 18.8,113 19.6,113 
				19.6,108.8 18.8,108.8 18.8,107.9 19.6,107.9 19.6,103.7 18.8,103.7 18.8,102.7 19.6,102.7 19.6,98.6 18.8,98.6 18.8,97.6 
				19.6,97.6 19.6,93.4 18.8,93.4 18.8,92.5 19.6,92.5 19.6,88.3 18.8,88.3 18.8,87.4 19.6,87.4 19.6,87.3 28.4,80.3 32.2,83.3 
				32.2,81.8 35.1,81.8 35.1,85.6 37.3,87.3 37.3,87.4 38,87.4 38,88.3 37.3,88.3 37.3,92.5 38,92.5 38,93.4 37.3,93.4 37.3,97.6 
				38,97.6 38,98.6 37.3,98.6 37.3,102.7 38,102.7 38,103.7 37.3,103.7 37.3,107.9 38,107.9 38,108.8 37.3,108.8 37.3,113 38,113 
				38,113.9 37.3,113.9 37.3,118.1 38,118.1 38,119 37.3,119 37.3,123.2 38,123.2 38,124.2 37.3,124.2 37.3,128.3 38,128.3 
				38,129.3 37.3,129.3 37.3,133.4 42.6,133.4 42.6,103.7 41.9,103.7 41.9,102.6 61,102.6 61,103.7 60.3,103.7 60.3,114.1 
				65.8,114.1 65.9,83.9 77.1,89.5 77.1,88.3 80,88.3 80,91 83.4,92.7 83.4,119.9 89.5,119.9 89.5,111.9 88.7,111.9 88.7,110.9 
				123.9,110.9 123.9,111.9 122.6,111.9 122.6,133.4 126.1,133.4 126.1,119 137.2,119 137.2,114 135.9,114 135.9,112.9 146.8,112.9 
				146.8,110.2 146,110.2 146,109.2 152.7,109.2 152.7,110.2 152,110.2 152,112.9 153.7,112.9 153.7,114 152.9,114 152.9,119 
				154.1,119 154.1,123.7 158.9,123.7 158.9,96.7 158.4,96.7 158.4,95.8 169.4,95.8 169.4,91.2 168.6,91.2 168.6,90.2 175.4,90.2 
				175.4,91.2 174.7,91.2 174.7,95.8 176.5,95.8 176.5,96.7 174.9,96.7 174.9,98.7 191.3,98.7 191.3,115.5 198.9,115.5 198.9,113.9 
				198.2,113.9 198.2,113 198.9,113 198.9,108.8 198.2,108.8 198.2,107.9 198.9,107.9 198.9,103.7 198.2,103.7 198.2,102.7 
				198.9,102.7 198.9,98.6 198.2,98.6 198.2,97.6 198.9,97.6 198.9,93.4 198.2,93.4 198.2,92.5 198.9,92.5 198.9,88.3 198.2,88.3 
				198.2,87.4 198.9,87.4 198.9,87.3 207.8,80.3 211.5,83.3 211.5,81.8 214.4,81.8 214.4,85.6 216.6,87.3 216.6,87.4 217.3,87.4 
				217.3,88.3 216.6,88.3 216.6,92.5 217.3,92.5 217.3,93.4 216.6,93.4 216.6,97.6 217.3,97.6 217.3,98.6 216.6,98.6 216.6,102.7 
				217.3,102.7 217.3,103.7 216.6,103.7 216.6,107.9 217.3,107.9 217.3,108.8 216.6,108.8 216.6,113 217.3,113 217.3,113.9 
				216.6,113.9 216.6,118.1 217.3,118.1 217.3,119 216.6,119 216.6,123.2 217.3,123.2 217.3,124.2 216.6,124.2 216.6,128.3 
				217.3,128.3 217.3,129.3 216.6,129.3 216.6,133.4 221.9,133.4 221.9,103.7 221.2,103.7 221.2,102.6 			"/>
		</g>
	</g>
</g>
<g id="twitter">
	<g id="twitter_3_">
		<path id="TW_2_" fill="#F2F2F2" d="M149.8,2c-15.1,0-27.5,12.4-27.5,27.5S134.7,57,149.8,57c15.1,0,27.5-12.4,27.5-27.5
			S164.9,2,149.8,2z M163.8,24.2c0.5,9.2-6.4,19.5-18.8,19.5c-3.7,0-7.1-1.1-10.1-3c3.4,0.5,6.9-0.5,9.9-2.8c-3,0-5.3-2.1-6.2-4.6
			c1.1,0.2,2.1,0.2,3,0c-3.2-0.7-5.3-3.4-5.3-6.6c0.9,0.5,1.8,0.7,3,0.9c-3-2.1-3.7-5.7-2.1-8.7c3.2,3.9,8,6.6,13.5,6.9
			c-0.9-4.1,2.1-8,6.4-8c1.8,0,3.7,0.7,4.8,2.1c1.6-0.2,3-0.9,4.1-1.6c-0.5,1.6-1.6,2.8-3,3.7c1.4-0.2,2.5-0.5,3.7-1.1
			C166.1,22.2,164.9,23.3,163.8,24.2L163.8,24.2z"/>
	</g>
</g>
<g id="instagram">
	<g id="instagram_3_">
		<path id="IG_2_" fill="#F2F2F2" d="M102.2,18.7v3c0,0.7-0.5,1.1-1.1,1.1h-3c-0.7,0-1.1-0.5-1.1-1.1v-3c0-0.7,0.5-1.1,1.1-1.1h3
			C101.7,17.6,102.2,18,102.2,18.7z M90.2,35.7c3.4,0,6.2-2.8,6.2-6.2s-2.8-6.2-6.2-6.2s-6.2,2.8-6.2,6.2S86.8,35.7,90.2,35.7z
			 M99.9,28.1v1.4c0,5.5-4.4,9.9-9.9,9.9c-5.5,0-9.9-4.4-9.9-9.9v-1.4c0-0.5,0.2-0.9,0.2-1.4h-2.3v13.5c0,0.7,0.5,1.1,1.1,1.1h21.5
			c0.7,0,1.1-0.5,1.1-1.1V27h-2.5C99.9,27.4,99.9,27.9,99.9,28.1L99.9,28.1z M117.7,29.5c0,15.1-12.4,27.5-27.5,27.5
			S62.7,44.6,62.7,29.5S75.1,2,90.2,2S117.7,14.4,117.7,29.5z M106.3,17.4c0-2.1-1.6-3.7-3.7-3.7H77.9c-2.1,0-3.7,1.6-3.7,3.7v24.8
			c0,2.1,1.6,3.7,3.7,3.7h24.8c2.1,0,3.7-1.6,3.7-3.7C106.3,42.1,106.3,17.4,106.3,17.4z"/>
	</g>
</g>
<g id="facebook">
	<g id="facebook_3_">
		<path id="FB_2_" fill="#F2F2F2" d="M30.7,2C15.6,2,3.2,14.4,3.2,29.5S15.6,57,30.7,57s27.5-12.4,27.5-27.5S46.1,2,30.7,2z
			 M37.6,20.3h-3.2c-1.1,0-1.4,0.5-1.4,1.8v2.8h4.6l-0.5,4.6H33v16h-6.9v-16h-4.6v-4.6h4.6v-5.3c0-4.1,2.1-6.2,6.9-6.2h4.6
			C37.6,13.5,37.6,20.3,37.6,20.3z"/>
	</g>
</g>
<g id="foreground_1_">
	<g id="foreground">
		<g id="XMLID_3173_">
			<g id="XMLID_3174_">
				<polygon id="XMLID_3445_" fill="#9FB6D9" points="0,224.4 0,225.4 0,228.7 242.9,228.7 242.9,225.4 242.9,224.4 				"/>
				<polygon id="XMLID_3444_" fill="#C4ABAA" points="242.6,223.1 242.6,223.1 -0.7,223.1 -0.7,224.4 242.6,224.4 				"/>
				<path id="XMLID_3443_" fill="#CECBCA" d="M242.6,220.1h-31.1v0.7h-1l0-0.7h-1.9v0.7h-1h-4.2h-3.7h-8.9v-0.7h-2.7v1.5
					c0.3,0.2,0.4,0.5,0.4,0.5h-0.4h-0.8h-0.5c0.2-0.3,0.3-0.5,0.5-0.6v-1.5h-2v0.7H184v0h-0.5h-0.2h-4.4h-0.3h-4.3h-0.3h-0.4v0h-0.3
					h-0.6v0H172h-0.2h-4.4h-0.3h-4.3h-0.3h-0.4v0h-0.7v0.8c0.3,0.2,0.4,0.5,0.4,0.5h-0.4h-0.8h-0.5c0.2-0.3,0.3-0.5,0.5-0.6v-1.5
					H78.8v1v0.1h-0.3H67h-0.9h-2.7h-2.8h-1.1H48.6v1.1c0.4,0.3,0.7,0.8,0.7,0.8h-0.7h-1.1h-0.7c0.2-0.4,0.5-0.7,0.7-0.8v-2h-2.9v0.8
					v0h-9.4h-8.9v-0.8h-27v3h243.3V220.1z"/>
				<path id="XMLID_3442_" fill="#ED7B55" d="M43.4,202.9c0.2,0.3,0.3,0.5,0.4,0.8C43.7,203.4,43.6,203.1,43.4,202.9z"/>
				<path id="XMLID_3441_" fill="#ED7B55" d="M41.4,201.8L41.4,201.8c0.2,0,0.3,0,0.5,0C41.8,201.9,41.6,201.8,41.4,201.8z"/>
				<path id="XMLID_3440_" fill="#ED7B55" d="M39.5,205.5c-0.1-0.1-0.2-0.3-0.2-0.4c0.2,0.4,0.5,0.8,0.9,1
					C39.9,206,39.6,205.8,39.5,205.5z"/>
				<path id="XMLID_3437_" fill="#ED7B55" d="M35.1,206.6L35.1,206.6L35.1,206.6c-1.2-0.1-2.1-1.1-2.1-2.4c0-1.2,0.9-2.2,2.1-2.3v0
					c0.1,0,0.2,0,0.2,0c-0.1,0-0.2,0-0.2,0l0-1.6h-8.9v8.5h8.9V206.6z M29.3,206.6c-1.3,0-2.4-1.1-2.4-2.4c0-1.3,1.1-2.4,2.4-2.4
					s2.4,1.1,2.4,2.4C31.6,205.5,30.6,206.6,29.3,206.6z"/>
				<path id="XMLID_3436_" fill="#ED7B55" d="M40.1,206.2c0.4,0.3,0.8,0.4,1.3,0.4c-0.3,0-0.6-0.1-0.9-0.2
					C40.4,206.3,40.2,206.3,40.1,206.2z"/>
				<path id="XMLID_3435_" fill="#ED7B55" d="M35.2,206.6c0,0,0.1,0,0.1,0c0,0,0,0,0,0C35.3,206.6,35.3,206.6,35.2,206.6z"/>
				<path id="XMLID_3434_" fill="#ED7B55" d="M37,202.5c0.3,0.3,0.6,0.7,0.6,1.2C37.6,203.3,37.3,202.9,37,202.5z"/>
				<polygon id="XMLID_3433_" fill="#ED7B55" points="35.1,220.9 35.1,218.6 27.3,218.6 27.3,212 35.1,212 35.1,210.4 26.3,210.4 
					26.3,220.1 26.3,220.9 				"/>
				<polygon id="XMLID_3432_" fill="#893F2D" points="35.1,194.9 34.9,194.9 26,194.9 24.5,198.7 35.1,198.7 				"/>
				<polygon id="XMLID_3431_" fill="#893F2D" points="44.9,195.6 44.6,194.9 44.8,195.4 				"/>
				<polygon id="XMLID_3430_" fill="#893F2D" points="35.1,208.8 26.3,208.8 24.5,208.8 24.5,210.4 26.3,210.4 35.1,210.4 				"/>
				<path id="XMLID_3424_" fill="#893F2D" d="M29.3,201.8c-1.3,0-2.4,1.1-2.4,2.4c0,1.3,1.1,2.4,2.4,2.4c1.3,0,2.4-1.1,2.4-2.4
					C31.6,202.9,30.6,201.8,29.3,201.8z M31.1,204h-1.6v-1.6C30.3,202.5,31,203.1,31.1,204z M29.1,202.4v1.6h-1.6
					C27.6,203.1,28.2,202.5,29.1,202.4z M27.5,204.4h1.6v1.6C28.2,205.9,27.6,205.3,27.5,204.4z M29.5,206v-1.6h1.6
					C31,205.3,30.3,205.9,29.5,206z"/>
				<path id="XMLID_3423_" fill="#62C5EB" d="M29.5,204.4v1.6c0.8-0.1,1.5-0.8,1.6-1.6H29.5z"/>
				<path id="XMLID_3422_" fill="#62C5EB" d="M29.5,204h1.6c-0.1-0.8-0.8-1.5-1.6-1.6V204z"/>
				<path id="XMLID_3421_" fill="#62C5EB" d="M29.1,204v-1.6c-0.8,0.1-1.5,0.8-1.6,1.6H29.1z"/>
				<path id="XMLID_3420_" fill="#62C5EB" d="M29.1,204.4h-1.6c0.1,0.8,0.8,1.5,1.6,1.6V204.4z"/>
				<path id="XMLID_3419_" fill="#893F2D" d="M37,203.4C37,203.4,37,203.4,37,203.4C37,203.4,37,203.4,37,203.4
					C37,203.3,37,203.3,37,203.4C37,203.4,37,203.4,37,203.4z"/>
				<polygon id="XMLID_3418_" fill="#893F2D" points="37.4,204.4 37.2,204.4 37.2,204.4 				"/>
				<path id="XMLID_3417_" fill="#893F2D" d="M35.4,206.6C35.4,206.6,35.4,206.6,35.4,206.6c0.2,0,0.3,0,0.5,0
					C35.7,206.6,35.5,206.6,35.4,206.6C35.4,206.6,35.4,206.6,35.4,206.6z"/>
				<path id="XMLID_3416_" fill="#893F2D" d="M35.1,206c-0.8-0.1-1.5-0.8-1.6-1.6h1.6V204h-1.6c0.1-0.8,0.8-1.5,1.6-1.6v-0.2v-0.3
					c-1.2,0.1-2.1,1.1-2.1,2.3c0,1.2,0.9,2.2,2.1,2.3l0-0.3V206z"/>
				<path id="XMLID_3415_" fill="#893F2D" d="M37.2,204C37.2,204,37.2,204,37.2,204C37.2,203.9,37.2,203.9,37.2,204
					C37.2,204,37.2,204,37.2,204z"/>
				<path id="XMLID_3414_" fill="#893F2D" d="M36.7,202.9C36.7,202.9,36.7,202.9,36.7,202.9C36.7,202.9,36.7,202.9,36.7,202.9z"/>
				<path id="XMLID_3413_" fill="#62C5EB" d="M37.2,203.9C37.2,203.9,37.2,203.9,37.2,203.9c0-0.2-0.1-0.4-0.2-0.5c0,0,0,0,0,0
					C37.1,203.6,37.1,203.8,37.2,203.9z"/>
				<path id="XMLID_3412_" fill="#62C5EB" d="M35.1,206v-1.6h-1.6C33.6,205.3,34.3,205.9,35.1,206z"/>
				<path id="XMLID_3411_" fill="#62C5EB" d="M33.5,204h1.6v-1.6C34.3,202.5,33.6,203.1,33.5,204z"/>
				<path id="XMLID_3410_" fill="#62C5EB" d="M37,203.3C37,203.3,37,203.3,37,203.3c-0.1-0.2-0.2-0.3-0.3-0.4c0,0,0,0,0,0
					c-0.1-0.1-0.1-0.1-0.2-0.1C36.7,202.9,36.9,203.1,37,203.3z"/>
				<polygon id="XMLID_3409_" fill="#893F2D" points="43.4,204.4 43.3,204.4 43.3,204.4 				"/>
				<rect id="XMLID_3408_" x="39.6" y="204.4" fill="#893F2D" width="0" height="0"/>
				<polygon id="XMLID_3407_" fill="#893F2D" points="40.1,202.9 40.1,202.9 40.1,202.9 				"/>
				<path id="XMLID_3406_" fill="#893F2D" d="M39.5,205.5c0.2,0.3,0.4,0.5,0.6,0.6c0.1,0.1,0.3,0.2,0.4,0.2
					C40.1,206.2,39.7,205.9,39.5,205.5z"/>
				<path id="XMLID_3405_" fill="#893F2D" d="M39.8,203.3C39.8,203.3,39.8,203.3,39.8,203.3C39.8,203.4,39.8,203.4,39.8,203.3
					C39.8,203.4,39.8,203.4,39.8,203.3C39.8,203.4,39.8,203.4,39.8,203.3z"/>
				<path id="XMLID_3404_" fill="#893F2D" d="M40.5,206.4c0.3,0.1,0.6,0.2,0.9,0.2l0,0C41.1,206.6,40.8,206.5,40.5,206.4z"/>
				<path id="XMLID_3403_" fill="#893F2D" d="M39.6,204C39.6,204,39.6,204,39.6,204C39.6,203.9,39.6,203.9,39.6,204
					C39.6,204,39.6,204,39.6,204L39.6,204z"/>
				<rect id="XMLID_3402_" x="41.2" y="202.4" fill="#893F2D" width="0" height="0"/>
				<path id="XMLID_3401_" fill="#893F2D" d="M43.3,204L43.3,204C43.3,204,43.3,204,43.3,204C43.3,203.9,43.3,203.9,43.3,204
					C43.3,204,43.3,204,43.3,204z"/>
				<path id="XMLID_3400_" fill="#893F2D" d="M43.1,203.4C43.1,203.4,43.1,203.4,43.1,203.4C43.1,203.4,43.1,203.4,43.1,203.4
					L43.1,203.4z"/>
				<polygon id="XMLID_3399_" fill="#62C5EB" points="41.2,204.4 39.6,204.4 39.6,204.4 				"/>
				<path id="XMLID_3398_" fill="#62C5EB" d="M40.1,202.9L40.1,202.9c-0.1,0.1-0.2,0.3-0.3,0.4c0,0,0,0,0,0
					C39.9,203.2,40,203,40.1,202.9z"/>
				<polygon id="XMLID_3397_" fill="#62C5EB" points="41.2,204 41.2,202.4 41.2,202.4 				"/>
				<path id="XMLID_3396_" fill="#62C5EB" d="M39.8,203.4C39.8,203.4,39.8,203.4,39.8,203.4c-0.1,0.2-0.1,0.3-0.2,0.5c0,0,0,0,0,0
					C39.6,203.8,39.7,203.6,39.8,203.4z"/>
				<path id="XMLID_3395_" fill="#62C5EB" d="M43.3,203.9C43.3,203.9,43.3,203.9,43.3,203.9c0-0.2-0.1-0.4-0.2-0.5l0,0
					C43.2,203.6,43.2,203.8,43.3,203.9z"/>
				<polygon id="XMLID_3394_" fill="#E86142" points="35.1,198.7 24.5,198.7 23.8,198.7 23.8,200.3 26.3,200.3 35.1,200.3 				"/>
				<path id="XMLID_3391_" fill="#FBEAB9" d="M32.6,217.9v-5.3h2.5V212h-7.9v6.6h7.9v-0.6H32.6z M28,212.6h3.9v5.3H28V212.6z"/>
				<rect id="XMLID_3390_" x="28" y="212.6" fill="#62C5EB" width="3.9" height="5.3"/>
				<rect id="XMLID_3389_" x="32.6" y="212.6" fill="#62C5EB" width="2.5" height="5.3"/>
				<path id="XMLID_3386_" fill="#EC6B41" d="M35.1,201.9c0.1,0,0.2,0,0.2,0c0.7,0,1.2,0.3,1.7,0.7c0.3,0.3,0.6,0.7,0.6,1.2
					c0,0.2,0,0.3,0,0.5c0,0.3-0.1,0.6-0.2,0.9c-0.1,0.3-0.3,0.5-0.5,0.8c-0.1,0.1-0.2,0.2-0.4,0.3c-0.3,0.2-0.5,0.3-0.8,0.4
					c-0.2,0-0.3,0-0.5,0c0,0-0.1,0-0.1,0c0,0-0.1,0-0.1,0v2.2h9.4v-8.5h-9.4L35.1,201.9z M39.1,203.7c0.2-1.1,1.2-1.9,2.3-1.9h0l0,0
					c0.2,0,0.3,0,0.5,0c0.6,0.1,1.1,0.5,1.5,1c0.2,0.3,0.3,0.5,0.4,0.8c0,0.2,0,0.3,0,0.5c0,0.3-0.1,0.6-0.2,0.9
					c-0.1,0.3-0.3,0.5-0.5,0.8c-0.1,0.1-0.2,0.2-0.4,0.3c-0.4,0.3-0.8,0.4-1.3,0.4s-0.9-0.1-1.3-0.4c-0.4-0.3-0.7-0.6-0.9-1
					c-0.1-0.3-0.2-0.6-0.2-0.9C39.1,204,39.1,203.9,39.1,203.7z"/>
				<path id="XMLID_3383_" fill="#EC6B41" d="M35.1,212h2v6.6h-2v2.4h9.4v0v-0.8v-7.8v-1.9h-9.4V212z M42.9,212.3v8.6h-4.4v-8.6
					H42.9z"/>
				<polygon id="XMLID_3382_" fill="#723729" points="35.1,210.4 44.6,210.4 46.4,210.4 46.4,208.8 44.6,208.8 35.1,208.8 				"/>
				<path id="XMLID_3378_" fill="#723729" d="M35.4,206.6C35.4,206.6,35.4,206.6,35.4,206.6c0.2,0,0.3,0,0.5,0
					c0.3-0.1,0.6-0.2,0.8-0.4c0.1-0.1,0.2-0.2,0.4-0.3c0.2-0.2,0.4-0.5,0.5-0.8c0.1-0.3,0.2-0.6,0.2-0.9c0-0.2,0-0.3,0-0.5
					c-0.1-0.5-0.3-0.9-0.6-1.2c-0.4-0.4-1-0.7-1.7-0.7c-0.1,0-0.2,0-0.2,0v0v0.3v0.2v1.6v0.5v1.6v0.2l0,0.3v0h0c0,0,0.1,0,0.1,0
					C35.3,206.6,35.3,206.6,35.4,206.6z M35.6,202.4c0.3,0,0.6,0.2,0.9,0.4c0.1,0.1,0.1,0.1,0.2,0.1c0,0,0,0,0,0
					c0.1,0.1,0.2,0.3,0.3,0.4c0,0,0,0.1,0,0.1c0.1,0.2,0.1,0.3,0.2,0.5c0,0,0,0,0,0h-1.6V202.4z M37.2,204.4h0.2H37.2
					c-0.1,0.4-0.2,0.8-0.5,1.1c-0.3,0.3-0.7,0.5-1.1,0.5v-1.6H37.2z"/>
				<path id="XMLID_3377_" fill="#39B3D3" d="M35.6,206c0.4-0.1,0.8-0.2,1.1-0.5c0.3-0.3,0.5-0.7,0.5-1.1v0h-1.6V206z"/>
				<path id="XMLID_3376_" fill="#39B3D3" d="M37.2,204C37.2,204,37.2,204,37.2,204c0-0.2-0.1-0.4-0.2-0.6c0,0,0-0.1,0-0.1
					c-0.1-0.2-0.3-0.4-0.5-0.6c-0.3-0.2-0.5-0.3-0.9-0.4v1.6H37.2z"/>
				<polygon id="XMLID_3375_" fill="#723729" points="46.1,198.7 44.9,195.6 44.8,195.4 44.6,194.9 43.9,194.9 43.9,193 44.3,193 
					44.3,192 41.2,192 41.2,193 41.4,193 41.6,193 41.6,194.9 35.8,194.9 35.1,194.9 35.1,198.7 				"/>
				<path id="XMLID_3369_" fill="#723729" d="M39.5,205.5c0.3,0.4,0.6,0.7,1,0.9c0.3,0.1,0.6,0.2,0.9,0.2l0,0c0.5,0,0.9-0.1,1.3-0.4
					c0.1-0.1,0.2-0.2,0.4-0.3c0.2-0.2,0.4-0.5,0.5-0.8c0.1-0.3,0.2-0.6,0.2-0.9c0-0.2,0-0.3,0-0.5c-0.1-0.3-0.2-0.6-0.4-0.8
					c-0.3-0.5-0.9-0.9-1.5-1c-0.2,0-0.3,0-0.5,0h0c-1.1,0-2.1,0.8-2.3,1.9c0,0.2,0,0.3,0,0.5c0,0.3,0.1,0.6,0.2,0.9
					C39.3,205.3,39.4,205.4,39.5,205.5z M39.8,203.4C39.8,203.4,39.8,203.4,39.8,203.4c0.1-0.2,0.2-0.4,0.4-0.5c0,0,0,0,0,0
					c0.1-0.1,0.3-0.3,0.5-0.4c0.2-0.1,0.4-0.2,0.6-0.2l0,0h0v0v1.6h-1.6h0c0,0,0,0,0,0C39.6,203.8,39.7,203.6,39.8,203.4z
					 M43.3,204.4h0.2H43.3c-0.1,0.4-0.2,0.8-0.5,1.1c-0.3,0.3-0.7,0.5-1.1,0.5v-1.6H43.3z M39.6,204.4L39.6,204.4L39.6,204.4
					L39.6,204.4l1.6,0v1.6c-0.2,0-0.4-0.1-0.6-0.2C40.1,205.6,39.7,205.1,39.6,204.4z M43.1,203.4C43.1,203.4,43.1,203.4,43.1,203.4
					c0.1,0.2,0.1,0.4,0.2,0.5c0,0,0,0,0,0h0h-1.6v-1.6c0.4,0.1,0.8,0.2,1.1,0.5C42.9,203,43,203.2,43.1,203.4z"/>
				<path id="XMLID_3368_" fill="#39B3D3" d="M41.2,206v-1.6l-1.6,0h0h0c0.1,0.6,0.5,1.2,1,1.4C40.8,206,41,206,41.2,206z"/>
				<path id="XMLID_3367_" fill="#39B3D3" d="M41.7,206c0.4-0.1,0.8-0.2,1.1-0.5c0.3-0.3,0.5-0.7,0.5-1.1v0h-1.6V206z"/>
				<path id="XMLID_3366_" fill="#39B3D3" d="M39.8,203.3C39.8,203.4,39.8,203.4,39.8,203.3c-0.1,0.2-0.2,0.4-0.2,0.6c0,0,0,0,0,0
					h1.6l0-1.6v0l0,0c-0.2,0-0.4,0.1-0.6,0.2c-0.2,0.1-0.3,0.2-0.5,0.4c0,0,0,0,0,0C40,203,39.9,203.2,39.8,203.3z"/>
				<path id="XMLID_3365_" fill="#39B3D3" d="M41.7,202.4v1.6h1.6c0,0,0,0,0,0c0-0.2-0.1-0.4-0.2-0.5c0,0,0,0,0,0
					c-0.1-0.2-0.2-0.3-0.4-0.5C42.5,202.6,42.1,202.4,41.7,202.4z"/>
				<polygon id="XMLID_3364_" fill="#C6553B" points="35.1,198.7 35.1,200.3 44.6,200.3 46.8,200.3 46.8,198.7 46.1,198.7 				"/>
				<polygon id="XMLID_3363_" fill="#D5C79F" points="37.2,212 35.1,212 35.1,212.6 36.5,212.6 36.5,217.9 35.1,217.9 35.1,218.6 
					37.2,218.6 				"/>
				<rect id="XMLID_3362_" x="35.1" y="212.6" fill="#39B3D3" width="1.4" height="5.3"/>
				<path id="XMLID_3359_" fill="#723729" d="M38.5,220.9h4.4v-8.6h-4.4V220.9z M41.6,216c0.1-0.1,0.2-0.2,0.4-0.2
					c0.3,0,0.5,0.2,0.5,0.5c0,0.3-0.2,0.5-0.5,0.5c-0.2,0-0.4-0.1-0.5-0.3c0-0.1,0-0.1,0-0.2C41.5,216.2,41.5,216.1,41.6,216z"/>
				<path id="XMLID_3358_" fill="#EC6B41" d="M42,216.9c0.3,0,0.5-0.2,0.5-0.5c0-0.3-0.2-0.5-0.5-0.5c-0.1,0-0.3,0.1-0.4,0.2
					c-0.1,0.1-0.2,0.2-0.2,0.4c0,0.1,0,0.1,0,0.2C41.6,216.8,41.8,216.9,42,216.9z"/>
				<polygon id="XMLID_3357_" fill="#94562A" points="173.1,188.2 173.1,180 169.9,180 169.9,188.1 167.3,189.4 173.1,189.4 				"/>
				<polygon id="XMLID_3356_" fill="#94562A" points="179.9,182.8 179.9,182.8 181.4,182.1 181.3,182.1 				"/>
				<polygon id="XMLID_3355_" fill="#94562A" points="183.9,180.7 181.9,181.8 181.9,181.8 				"/>
				<rect id="XMLID_3354_" x="160.8" y="197.2" fill="#F5A556" width="12.3" height="0.8"/>
				<path id="XMLID_3350_" fill="#F5A556" d="M173.1,200.2h-12.3v6.4h12.3V200.2z M166.6,201.3v0.3v3.7v0.3v0h-4.2v0v-0.3v-3.7v-0.3
					v0L166.6,201.3L166.6,201.3z M172.4,201.3v0.3v3.7v0.3v0h-4.2v0v-0.3v-3.7v-0.3v0L172.4,201.3L172.4,201.3z"/>
				<rect id="XMLID_3349_" x="160.8" y="191.6" fill="#F5A556" width="12.3" height="0.4"/>
				<path id="XMLID_3348_" fill="#F5A556" d="M173.1,208.8h-11.1c0.1,0.1,0.1,0.2,0.1,0.4h0.1v0.3h-0.1l-0.7,1.9l0,0.1h0h-0.1v9.3
					h0.7v-10v-0.6v-0.1h10.5v0.1v0.6v10h0.6V208.8z"/>
				<polygon id="XMLID_3347_" fill="#B36C32" points="173.1,189.4 167.3,189.4 159.8,189.4 159.8,191.6 160.8,191.6 173.1,191.6 
									"/>
				<polygon id="XMLID_3346_" fill="#B36C32" points="173.1,198 160.8,198 159.8,198 159.8,200.2 160.8,200.2 173.1,200.2 				"/>
				<path id="XMLID_3345_" fill="#B36C32" d="M160.8,208.2V208h0.3v0.3c0.4,0,0.8,0.3,1,0.6h11.1v-2.2h-12.3h-1v2.2h0
					C160,208.5,160.4,208.3,160.8,208.2z"/>
				<rect id="XMLID_3344_" x="162.8" y="210.8" fill="#C7E6F3" width="4.3" height="10.1"/>
				<rect id="XMLID_3343_" x="167.4" y="210.8" fill="#C7E6F3" width="4.4" height="10.1"/>
				<polygon id="XMLID_3342_" fill="#B36C32" points="172.6,210.8 172.6,210.2 172.6,210.1 162.1,210.1 162.1,210.2 162.1,210.8 
					162.1,220.8 162.1,220.9 162.5,220.9 162.8,220.9 162.8,210.8 167.1,210.8 167.1,220.9 167.4,220.9 167.4,210.8 171.9,210.8 
					171.9,220.9 172,220.9 172.6,220.9 172.6,220.8 				"/>
				<rect id="XMLID_3341_" x="162.7" y="201.5" fill="#C7E6F3" width="1.7" height="3.7"/>
				<rect id="XMLID_3340_" x="164.6" y="201.5" fill="#C7E6F3" width="1.8" height="3.7"/>
				<path id="XMLID_3336_" fill="#B36C32" d="M162.4,201.3v0.3v3.7v0.3v0h4.2v0v-0.3v-3.7v-0.3v0L162.4,201.3L162.4,201.3z
					 M164.6,201.5h1.8v3.7h-1.8V201.5z M164.4,205.2h-1.7v-3.7h1.7V205.2z"/>
				<rect id="XMLID_3335_" x="168.5" y="201.5" fill="#C7E6F3" width="1.7" height="3.7"/>
				<rect id="XMLID_3334_" x="170.4" y="201.5" fill="#C7E6F3" width="1.8" height="3.7"/>
				<path id="XMLID_3330_" fill="#B36C32" d="M168.3,201.3v0.3v3.7v0.3v0h4.2v0v-0.3v-3.7v-0.3v0L168.3,201.3L168.3,201.3z
					 M170.4,201.5h1.8v3.7h-1.8V201.5z M170.3,205.2h-1.7v-3.7h1.7V205.2z"/>
				<rect id="XMLID_3329_" x="178.8" y="220.8" fill="#C7E6F3" width="4.4" height="0"/>
				<rect id="XMLID_3328_" x="174.1" y="220.8" fill="#C7E6F3" width="4.3" height="0"/>
				<polygon id="XMLID_3327_" fill="#B36C32" points="173.4,220.8 173.4,220.9 173.9,220.9 174.1,220.9 174.1,220.8 				"/>
				<polygon id="XMLID_3326_" fill="#B36C32" points="183.3,220.8 183.3,220.9 183.4,220.9 184,220.9 184,220.8 				"/>
				<rect id="XMLID_3325_" x="178.5" y="220.8" fill="#B36C32" width="0.3" height="0"/>
				<rect id="XMLID_3324_" x="162.1" y="192.8" fill="#C7E6F3" width="4.1" height="3.6"/>
				<rect id="XMLID_3323_" x="166.5" y="192.8" fill="#C7E6F3" width="4.1" height="3.6"/>
				<rect id="XMLID_3322_" x="160.8" y="192.8" fill="#C7E6F3" width="0.9" height="3.6"/>
				<rect id="XMLID_3321_" x="170.9" y="192.8" fill="#C7E6F3" width="2.2" height="3.6"/>
				<path id="XMLID_3317_" fill="#B36C32" d="M173.1,196.5h-2.2v-3.6h2.2v-0.8h-12.3h-0.2v0.8h0.2h0.9v3.6h-0.9h-0.2v0.8h0.2h12.3
					V196.5z M170.6,196.5h-4.1v-3.6h4.1V196.5z M162.1,192.8h4.1v3.6h-4.1V192.8z"/>
				<polygon id="XMLID_3316_" fill="#9CC8D9" points="176.4,184.6 178.2,183.7 178.2,183.7 177,184.3 176.4,184.6 				"/>
				
					<rect id="XMLID_3315_" x="178.1" y="183.4" transform="matrix(-0.8867 0.4623 -0.4623 -0.8867 422.055 263.404)" fill="#99C7D6" width="1.3" height="0"/>
				<polygon id="XMLID_3314_" fill="#9AC8D8" points="179.3,183.1 179.9,182.8 179.9,182.8 180.5,182.5 181.3,182.1 181.4,182.1 
					181.6,181.9 181.6,181.9 180.5,182.5 179.3,183.1 				"/>
				<polygon id="XMLID_3313_" fill="#96C8D6" points="181.6,181.9 181.9,181.8 181.9,181.8 182.7,181.3 182.7,181.3 181.6,181.9 
									"/>
				<polygon id="XMLID_3312_" fill="#96C9D8" points="183.9,180.7 182.7,181.3 182.7,181.3 				"/>
				<polygon id="XMLID_3311_" fill="#7D4928" points="173.1,188.2 173.1,189.4 183.9,189.4 183.9,186.4 183.9,185.1 183.9,180.7 
					181.9,181.8 181.6,181.9 181.4,182.1 179.9,182.8 179.3,183.1 178.2,183.7 176.4,184.6 176.4,184.6 176.4,180 173.1,180 				"/>
				<rect id="XMLID_3310_" x="173.1" y="197.2" fill="#ED933F" width="12.3" height="0.8"/>
				<path id="XMLID_3306_" fill="#ED933F" d="M173.1,206.6h12.3v-6.4h-12.3V206.6z M179.3,205.5v-0.3v-3.7v-0.3v0h4.2v0v0.3v3.7v0.3
					v0L179.3,205.5L179.3,205.5z M173.5,205.5v-0.3v-3.7v-0.3v0h4.2v0v0.3v3.7v0.3v0L173.5,205.5L173.5,205.5z"/>
				<rect id="XMLID_3305_" x="173.1" y="191.6" fill="#ED933F" width="12.3" height="0.4"/>
				<polygon id="XMLID_3304_" fill="#ED933F" points="173.1,220.8 173.4,220.8 173.4,210.8 173.4,210.2 173.4,210.1 184,210.1 
					184,210.2 184,210.8 184,220.8 185.4,220.8 185.4,220.1 185.4,212.5 185.4,208.8 173.1,208.8 				"/>
				<polygon id="XMLID_3303_" fill="#985D2B" points="173.1,191.6 185.4,191.6 186.1,191.6 186.4,191.6 186.4,189.4 183.9,189.4 
					173.1,189.4 				"/>
				<polygon id="XMLID_3302_" fill="#985D2B" points="173.1,200.2 185.4,200.2 186.1,200.2 186.4,200.2 186.4,198 185.4,198 
					173.1,198 				"/>
				<polygon id="XMLID_3301_" fill="#985D2B" points="173.1,208.8 185.4,208.8 186.4,208.8 186.4,206.6 185.4,206.6 173.1,206.6 
									"/>
				<rect id="XMLID_3300_" x="175.6" y="201.5" fill="#A7CBD6" width="1.8" height="3.7"/>
				<rect id="XMLID_3299_" x="173.7" y="201.5" fill="#A7CBD6" width="1.7" height="3.7"/>
				<path id="XMLID_3295_" fill="#985D2B" d="M177.6,205.5v-0.3v-3.7v-0.3v0h-4.2v0v0.3v3.7v0.3v0L177.6,205.5L177.6,205.5z
					 M173.7,201.5h1.7v3.7h-1.7V201.5z M175.6,201.5h1.8v3.7h-1.8V201.5z"/>
				<rect id="XMLID_3294_" x="179.6" y="201.5" fill="#A7CBD6" width="1.7" height="3.7"/>
				<rect id="XMLID_3293_" x="181.5" y="201.5" fill="#A7CBD6" width="1.8" height="3.7"/>
				<path id="XMLID_3289_" fill="#985D2B" d="M183.5,205.5v-0.3v-3.7v-0.3v0h-4.2v0v0.3v3.7v0.3v0L183.5,205.5L183.5,205.5z
					 M179.6,201.5h1.7v3.7h-1.7V201.5z M181.5,201.5h1.8v3.7h-1.8V201.5z"/>
				<rect id="XMLID_3288_" x="178.8" y="210.8" fill="#A7CBD6" width="4.4" height="10"/>
				<rect id="XMLID_3287_" x="174.1" y="210.8" fill="#A7CBD6" width="4.3" height="10"/>
				<polygon id="XMLID_3286_" fill="#985D2B" points="184,210.8 184,210.2 184,210.1 173.4,210.1 173.4,210.2 173.4,210.8 
					173.4,220.8 174.1,220.8 174.1,210.8 178.5,210.8 178.5,220.8 178.8,220.8 178.8,210.8 183.3,210.8 183.3,220.8 184,220.8 				
					"/>
				<rect id="XMLID_3285_" x="175.3" y="192.8" fill="#A7CBD6" width="4.1" height="3.6"/>
				<rect id="XMLID_3284_" x="179.7" y="192.8" fill="#A7CBD6" width="4.1" height="3.6"/>
				<rect id="XMLID_3283_" x="173.1" y="192.8" fill="#A7CBD6" width="1.9" height="3.6"/>
				<rect id="XMLID_3282_" x="184.2" y="192.8" fill="#A7CBD6" width="1.3" height="3.6"/>
				<path id="XMLID_3278_" fill="#985D2B" d="M173.1,192.8h1.9v3.6h-1.9v0.8h12.3V197v-0.6h-1.3v-3.6h1.3v-0.3v-0.5h-12.3V192.8z
					 M175.3,192.8h4.1v3.6h-4.1V192.8z M183.8,196.5h-4.1v-3.6h4.1V196.5z"/>
				<path id="XMLID_3274_" fill="#31302F" d="M160.1,222.1h0.5h0.8h0.4c0,0-0.2-0.3-0.4-0.5v-0.8v-9.3h0.1h0l0-0.1l0.7-1.9h0.1v-0.3
					h-0.1c0-0.1,0-0.3-0.1-0.4c-0.2-0.3-0.5-0.6-1-0.6V208h-0.3v0.3c-0.4,0.1-0.8,0.3-0.9,0.6c-0.1,0.1-0.1,0.2-0.1,0.4h-0.1v0.3
					h0.1l0.7,1.9l0,0.1h0h0.1v8.6v1.5C160.4,221.7,160.3,221.8,160.1,222.1z M161.2,211.5H161v-1.9h1L161.2,211.5z M159.9,209.5h1
					v1.9h-0.2L159.9,209.5z"/>
				<polygon id="XMLID_3273_" fill="#F1C942" points="160.9,211.5 160.9,209.5 159.9,209.5 160.7,211.5 				"/>
				<polygon id="XMLID_3272_" fill="#F1C942" points="162,209.5 161,209.5 161,211.5 161.2,211.5 				"/>
				<polygon id="XMLID_3271_" fill="#F1C942" points="186.4,209.5 186.4,209.5 186.2,209.5 187,211.5 187.2,211.5 187.2,211.1 
					186.6,209.5 				"/>
				<polygon id="XMLID_3270_" fill="#A5C954" points="202.9,211.5 202.9,211.5 202.9,211.5 				"/>
				<path id="XMLID_3269_" fill="#A5C954" d="M200.7,211.5C200.7,211.5,200.7,211.5,200.7,211.5c-0.1,0-0.3,0-0.4-0.1l0,0
					C200.4,211.5,200.5,211.5,200.7,211.5z"/>
				<path id="XMLID_3268_" fill="#A5C954" d="M202.5,211.4c-0.1,0-0.1-0.1-0.2-0.1c0.2,0.1,0.4,0.2,0.6,0.2
					C202.8,211.5,202.6,211.5,202.5,211.4z"/>
				<path id="XMLID_3267_" fill="#A5C954" d="M204.6,211.3c-0.1,0-0.1-0.1-0.2-0.1C204.5,211.3,204.5,211.3,204.6,211.3
					C204.6,211.3,204.6,211.3,204.6,211.3z"/>
				<polygon id="XMLID_3266_" fill="#A5C954" points="205.1,211.5 205.1,211.5 205.1,211.5 				"/>
				<path id="XMLID_3265_" fill="#A5C954" d="M199.7,219.3h-8v-0.8v-6.4h8V211l0,0v0c-0.1-0.1-0.1-0.3-0.2-0.5c0,0.6-0.5,1-1.1,1
					c-0.6,0-1-0.4-1.1-1c0,0.6-0.5,1-1.1,1c-0.6,0-1.1-0.5-1.1-1.1c0,0.6-0.5,1.1-1.1,1.1c-0.6,0-1.1-0.5-1.1-1.1h0
					c0,0.6-0.5,1.1-1.1,1.1c-0.4,0-0.8-0.3-1-0.6v9.2v0.7h8.9V219.3z"/>
				<path id="XMLID_3264_" fill="#A5C954" d="M208.6,210.8l0,1.7L208.6,210.8c0-0.1,0-0.1,0-0.2
					C208.6,210.7,208.6,210.8,208.6,210.8z"/>
				<polygon id="XMLID_3263_" fill="#A5C954" points="208.6,210.8 208.6,210.8 208.6,210.8 				"/>
				<path id="XMLID_3262_" fill="#A5C954" d="M200.2,211.4C200.2,211.4,200.1,211.4,200.2,211.4
					C200.1,211.4,200.2,211.4,200.2,211.4C200.2,211.4,200.2,211.4,200.2,211.4z"/>
				<path id="XMLID_3261_" fill="#A5C954" d="M205.1,211.5C205.1,211.5,205.1,211.5,205.1,211.5c-0.1,0-0.3,0-0.4-0.1c0,0,0,0,0,0
					C204.9,211.5,205,211.5,205.1,211.5z"/>
				<polygon id="XMLID_3260_" fill="#3F7739" points="199.7,205.2 199.2,205.2 195.4,205.2 195.4,203.9 194.4,203.9 194.4,205.2 
					190.6,205.2 189.1,208.9 199.7,208.9 				"/>
				<path id="XMLID_3259_" fill="#6DB644" d="M208.7,209.9c-0.1,0.2-0.2,0.3-0.2,0.5h0C208.5,210.2,208.6,210.1,208.7,209.9z"/>
				<path id="XMLID_3258_" fill="#6DB644" d="M206.5,209.8c-0.1,0.2-0.2,0.4-0.2,0.6h0C206.3,210.2,206.4,210,206.5,209.8z"/>
				<path id="XMLID_3257_" fill="#6DB644" d="M202.2,209.7c-0.2,0.2-0.3,0.5-0.3,0.8h0C201.8,210.1,202,209.9,202.2,209.7z"/>
				<path id="XMLID_3256_" fill="#6DB644" d="M204,210.3c0-0.3-0.2-0.5-0.4-0.7C203.9,209.8,204,210,204,210.3z"/>
				<path id="XMLID_3255_" fill="#6DB644" d="M210.4,209.7c0.2,0.2,0.3,0.4,0.3,0.7h0C210.7,210.1,210.6,209.9,210.4,209.7z"/>
				<path id="XMLID_3254_" fill="#6DB644" d="M209.6,209.3c0.3,0,0.6,0.1,0.8,0.3C210.2,209.5,209.9,209.3,209.6,209.3z"/>
				<path id="XMLID_3253_" fill="#6DB644" d="M189,209.2L189,209.2l0.1,0.3H189l-0.5,1.2c0.1,0.4,0.5,0.8,1,0.8
					c0.6,0,1.1-0.5,1.1-1.1h0c0,0.2,0,0.3,0.1,0.5c0.2,0.4,0.6,0.6,1,0.6c0.6,0,1.1-0.5,1.1-1.1h0c0,0.6,0.5,1.1,1.1,1.1
					c0.6,0,1.1-0.5,1.1-1.1c0,0.6,0.5,1.1,1.1,1.1c0.6,0,1-0.4,1.1-1c0,0.6,0.5,1,1.1,1c0.6,0,1.1-0.5,1.1-1c0,0.2,0.1,0.3,0.2,0.5
					l0-1.1c0.1-0.2,0.2-0.3,0.4-0.4c-0.2,0.1-0.3,0.2-0.4,0.4l0-1h-10.6h-0.2C188.9,209,189,209.1,189,209.2z"/>
				<path id="XMLID_3252_" fill="#6DB644" d="M200.7,209.3c0.3,0,0.6,0.1,0.8,0.3C201.2,209.5,201,209.3,200.7,209.3z"/>
				<path id="XMLID_3251_" fill="#6DB644" d="M205.1,209.3c0.6,0,1.1,0.5,1.1,1.1C206.2,209.8,205.7,209.3,205.1,209.3z"/>
				<path id="XMLID_3250_" fill="#6DB644" d="M201.5,209.8c0.1,0.2,0.3,0.4,0.3,0.7C201.8,210.2,201.7,209.9,201.5,209.8z"/>
				<path id="XMLID_3249_" fill="#6DB644" d="M207.4,209.3c0.6,0,1.1,0.5,1.1,1.1h0C208.5,209.8,208,209.3,207.4,209.3z"/>
				<path id="XMLID_3248_" fill="#3F7739" d="M206.5,216.1c-0.1,0.1-0.1,0.2-0.1,0.4C206.4,216.3,206.4,216.2,206.5,216.1z"/>
				<path id="XMLID_3247_" fill="#3F7739" d="M207.2,216.8c0.1-0.1,0.1-0.2,0.1-0.4c0,0.1,0,0.1,0,0.2S207.3,216.7,207.2,216.8z"/>
				<path id="XMLID_3246_" fill="#3F7739" d="M206.9,215.9L206.9,215.9c0.1,0,0.1,0,0.2,0C207,215.9,206.9,215.9,206.9,215.9z"/>
				<path id="XMLID_3245_" fill="#A5C954" d="M206.9,216.9L206.9,216.9c-0.1,0-0.1,0-0.2,0C206.7,216.9,206.8,216.9,206.9,216.9z"/>
				<rect id="XMLID_3244_" x="191.7" y="212.2" fill="#C7E6F3" width="8" height="6.4"/>
				<rect id="XMLID_3243_" x="191.7" y="218.6" fill="#6DB644" width="8" height="0.8"/>
				<polygon id="XMLID_3242_" fill="#6DB644" points="200.7,211.5 200.7,211.5 200.7,211.5 				"/>
				<path id="XMLID_3241_" fill="#6DB644" d="M200.3,211.4L200.3,211.4C200.2,211.4,200.2,211.4,200.3,211.4
					C200.2,211.4,200.2,211.4,200.3,211.4C200.2,211.4,200.2,211.4,200.3,211.4z"/>
				<path id="XMLID_3240_" fill="#6DB644" d="M202.9,211.5c-0.2,0-0.3,0-0.4-0.1C202.6,211.5,202.8,211.5,202.9,211.5L202.9,211.5z"
					/>
				<path id="XMLID_3239_" fill="#6DB644" d="M204.7,211.4C204.7,211.4,204.7,211.4,204.7,211.4c0,0-0.1,0-0.1-0.1c0,0,0,0,0,0
					C204.6,211.4,204.7,211.4,204.7,211.4z"/>
				<polygon id="XMLID_3238_" fill="#6DB644" points="205.1,211.5 205.1,211.5 205.1,211.5 				"/>
				<path id="XMLID_3237_" fill="#6DB644" d="M204.4,209.6c-0.2,0.2-0.3,0.4-0.4,0.7C204.1,210,204.2,209.8,204.4,209.6z"/>
				<path id="XMLID_3236_" fill="#6DB644" d="M208.6,210.9C208.6,210.9,208.6,210.8,208.6,210.9
					C208.6,210.8,208.6,210.9,208.6,210.9z"/>
				<path id="XMLID_3235_" fill="#6DB644" d="M208.9,211.2C208.9,211.2,208.8,211.2,208.9,211.2
					C208.8,211.2,208.9,211.2,208.9,211.2z"/>
				<path id="XMLID_3234_" fill="#6DB644" d="M209.2,211.4C209.2,211.4,209.2,211.4,209.2,211.4
					C209.2,211.4,209.2,211.4,209.2,211.4z"/>
				<polygon id="XMLID_3233_" fill="#6DB644" points="199.7,203.9 199.7,200.1 198.6,200.1 197.9,200.1 192.7,200.1 192.7,200.1 
					192,200.1 192,200.1 190.7,200.1 190.7,203.9 194.4,203.9 195.4,203.9 				"/>
				<polygon id="XMLID_3232_" fill="#3F7739" points="192.7,200.1 192.7,200.1 194.1,197.3 194.4,198 195.4,198 194.7,196.7 
					193.6,196.7 192,200.1 192,200.1 				"/>
				<polygon id="XMLID_3231_" fill="#3F7739" points="200,197.3 199.7,197.8 199.7,196.7 199.5,196.7 197.9,200.1 198.6,200.1 				
					"/>
				<path id="XMLID_3230_" fill="#94B63E" d="M208.6,210.6c0-0.1,0-0.1,0-0.2h0c0,0.1,0,0.3-0.1,0.4s-0.1,0.2-0.2,0.3
					c-0.2,0.2-0.5,0.3-0.8,0.3c-0.3,0-0.6-0.1-0.8-0.3c-0.2-0.2-0.3-0.5-0.3-0.8h0c0,0.3-0.1,0.6-0.3,0.8c-0.1,0.1-0.2,0.2-0.4,0.2
					c-0.1,0.1-0.3,0.1-0.4,0.1h0h0c-0.1,0-0.3,0-0.4-0.1c0,0-0.1,0-0.1-0.1c-0.1,0-0.1-0.1-0.2-0.1c-0.2-0.2-0.3-0.4-0.4-0.7
					c0,0.3-0.2,0.5-0.4,0.7c-0.1,0.1-0.2,0.1-0.3,0.2c-0.1,0-0.3,0.1-0.4,0.1l0,0h0c-0.2,0-0.4-0.1-0.6-0.2c-0.1,0-0.1-0.1-0.2-0.1
					c-0.2-0.2-0.3-0.5-0.3-0.8h-0.1c0,0.1,0,0.3-0.1,0.4c-0.1,0.3-0.3,0.5-0.6,0.6c-0.1,0.1-0.3,0.1-0.4,0.1h0l0,0
					c-0.1,0-0.3,0-0.4-0.1c0,0-0.1,0-0.1,0c0,0-0.1,0-0.1,0c-0.2-0.1-0.3-0.2-0.4-0.4v1.2h2.8v6.4v0.8h-2.8v1.5h3.7v-8.7h4.2v8.7h1
					v-0.7v-7.6l0-1.7C208.6,210.8,208.6,210.7,208.6,210.6z"/>
				<path id="XMLID_3225_" fill="#5DA845" d="M199.7,208.9l0,1c0.1-0.2,0.2-0.3,0.4-0.4c-0.2,0.1-0.3,0.2-0.4,0.4l0,1.1v0l0,0
					c0.1,0.2,0.2,0.3,0.4,0.4c0,0,0.1,0,0.1,0c0,0,0.1,0,0.1,0c0.1,0,0.2,0.1,0.4,0.1c0,0,0,0,0,0h0c0.2,0,0.3,0,0.4-0.1
					c0.3-0.1,0.5-0.3,0.6-0.6c0.1-0.1,0.1-0.3,0.1-0.4c0-0.3-0.1-0.5-0.3-0.7c0.1,0.2,0.3,0.4,0.3,0.7h0.1c0-0.3,0.1-0.6,0.3-0.8
					c-0.2,0.2-0.3,0.5-0.3,0.8h0c0,0.3,0.1,0.6,0.3,0.8c0.1,0,0.1,0.1,0.2,0.1s0.1,0.1,0.2,0.1c0.1,0.1,0.3,0.1,0.4,0.1h0l0,0
					c0.1,0,0.3,0,0.4-0.1c0.1,0,0.2-0.1,0.3-0.2c0.2-0.2,0.3-0.4,0.4-0.7c0,0.3,0.2,0.5,0.4,0.7c0.1,0,0.1,0.1,0.2,0.1
					c0,0,0.1,0.1,0.1,0.1c0.1,0.1,0.3,0.1,0.4,0.1c0,0,0,0,0,0l0,0h0c0.2,0,0.3,0,0.4-0.1c0.1-0.1,0.3-0.1,0.4-0.2
					c0.2-0.2,0.3-0.5,0.3-0.8c0-0.6-0.5-1.1-1.1-1.1c0.6,0,1.1,0.5,1.1,1.1h0c0-0.2,0.1-0.5,0.2-0.6c-0.1,0.2-0.2,0.4-0.2,0.6h0
					c0,0.3,0.1,0.6,0.3,0.8c0.2,0.2,0.5,0.3,0.8,0.3c0.3,0,0.6-0.1,0.8-0.3c0.1-0.1,0.2-0.2,0.2-0.3s0.1-0.3,0.1-0.4h0
					c0-0.6-0.5-1.1-1.1-1.1c0.6,0,1.1,0.5,1.1,1.1h0c0-0.2,0.1-0.4,0.2-0.5c-0.1,0.2-0.2,0.3-0.2,0.5h0c0,0.1,0,0.1,0,0.2
					c0,0.1,0,0.1,0,0.2l0,0c0,0,0,0,0,0c0,0,0,0,0,0c0,0,0,0,0,0.1c0,0.1,0.1,0.2,0.2,0.2c0,0,0.1,0.1,0.1,0.1
					c0.1,0.1,0.2,0.1,0.2,0.2c0,0,0,0,0.1,0c0.1,0,0.2,0.1,0.3,0.1c0,0,0,0,0,0c0,0,0,0,0,0h0c0,0,0,0,0,0c0,0,0,0,0,0c0,0,0,0,0,0
					c0,0,0,0,0,0c0,0,0,0,0,0c0,0,0,0,0,0h0c0,0,0,0,0,0c0,0,0,0,0,0c0,0,0,0,0,0c0,0,0,0,0,0c0,0,0,0,0,0c0,0,0,0,0,0c0,0,0,0,0,0
					c0,0,0,0,0,0c0,0,0,0,0,0c0,0,0,0,0,0c0,0,0,0,0,0c0,0,0,0,0,0c0,0,0,0,0,0c0.5,0,0.9-0.3,1-0.7c0.1-0.1,0.1-0.3,0.1-0.4h0
					c0-0.3-0.1-0.5-0.3-0.7c0.2,0.2,0.3,0.4,0.3,0.7v-1.6h-0.6H199.7z M204,210.3c0-0.3,0.2-0.5,0.4-0.7
					C204.2,209.8,204.1,210,204,210.3c0-0.3-0.2-0.5-0.4-0.7C203.9,209.8,204,210,204,210.3z M200.7,209.3c0.3,0,0.6,0.1,0.8,0.3
					C201.2,209.5,201,209.3,200.7,209.3z M209.6,209.3c0.3,0,0.6,0.1,0.8,0.3C210.2,209.5,209.9,209.3,209.6,209.3z"/>
				<path id="XMLID_3222_" fill="#3C6233" d="M207.6,212.2h-4.2v8.7h4.2V212.2z M206.5,216.1c0,0,0.1-0.1,0.2-0.1c0.1,0,0.1,0,0.2,0
					l0,0h0c0.1,0,0.1,0,0.2,0c0.1,0,0.1,0.1,0.2,0.1c0.1,0.1,0.1,0.2,0.1,0.4c0,0.1-0.1,0.3-0.1,0.4c0,0-0.1,0.1-0.2,0.1
					c-0.1,0-0.1,0-0.2,0h0l0,0c-0.1,0-0.1,0-0.2,0c-0.1,0-0.1-0.1-0.2-0.1c-0.1-0.1-0.1-0.2-0.1-0.4
					C206.4,216.3,206.4,216.2,206.5,216.1z"/>
				<path id="XMLID_3221_" fill="#94B63E" d="M206.7,216.9c0.1,0,0.1,0,0.2,0h0c0.1,0,0.1,0,0.2,0c0.1,0,0.1-0.1,0.2-0.1
					c0,0,0.1-0.1,0.1-0.2s0-0.1,0-0.2c0-0.1-0.1-0.3-0.1-0.4c0,0-0.1-0.1-0.2-0.1c-0.1,0-0.1,0-0.2,0l0,0c-0.1,0-0.1,0-0.2,0
					c-0.1,0-0.1,0.1-0.2,0.1c-0.1,0.1-0.1,0.2-0.1,0.4c0,0.1,0.1,0.3,0.1,0.4C206.6,216.8,206.6,216.9,206.7,216.9z"/>
				<rect id="XMLID_3220_" x="199.7" y="212.2" fill="#AFC1C8" width="2.8" height="6.4"/>
				<rect id="XMLID_3219_" x="199.7" y="218.6" fill="#5DA845" width="2.8" height="0.8"/>
				<polygon id="XMLID_3218_" fill="#5DA845" points="203.8,203.9 204.7,203.9 208.5,203.9 208.5,200.1 204.5,200.1 203.8,200.1 
					199.7,200.1 199.7,203.9 				"/>
				<polygon id="XMLID_3217_" fill="#3C6233" points="205.9,197.3 206.2,198 207.2,198 206.5,196.7 205.4,196.7 203.8,200.1 
					204.5,200.1 				"/>
				<polygon id="XMLID_3216_" fill="#3C6233" points="203.8,205.2 200,205.2 199.7,205.2 199.7,208.9 210.1,208.9 208.6,205.2 
					204.7,205.2 204.7,203.9 203.8,203.9 				"/>
				<polygon id="XMLID_3215_" fill="#3C6233" points="200,197.3 200.3,198 201.3,198 200.6,196.7 199.7,196.7 199.7,197.8 				"/>
				<polygon id="XMLID_3214_" fill="#A44C26" points="211.5,220.8 211.5,220.1 211.5,216.9 210.5,216.9 210.5,220.1 210.5,220.8 
									"/>
				<path id="XMLID_3211_" fill="#31302F" d="M186.9,222.1h0.5h0.8h0.4c0,0-0.2-0.3-0.4-0.5v-1.5v-8.6h0.1h0l0-0.1l0.3-0.7l0.5-1.2
					h0.1v-0.3H189c0-0.1,0-0.3-0.1-0.4c-0.2-0.4-0.6-0.7-1.1-0.7c-0.1,0-0.3,0-0.4,0.1V208H187v0.5c-0.3,0.2-0.5,0.5-0.5,0.8h-0.1
					v0.3v0h0.1l0.6,1.5l0.1,0.4l0,0.1h0h0.1v8.6v1.5C187.3,221.7,187.1,221.8,186.9,222.1z M188,211.5h-0.2v-1.9h1L188,211.5z"/>
				<polygon id="XMLID_3210_" fill="#F1C942" points="188.8,209.5 187.9,209.5 187.9,211.5 188,211.5 				"/>
				<path id="XMLID_3207_" fill="#F0C841" d="M60.6,213.3c0-1.5,1.2-2.8,2.8-2.8c0,0,0,0,0,0v0V206H49.2l-0.5,1.2l0,0.1h0h-0.1v12.7
					h10.9v1.1h1.1V213.3z M59.1,215.3h-9.5V209h4.4h0.7h4.4V215.3z"/>
				<path id="XMLID_3206_" fill="#FBEAB9" d="M49.9,204v0.5h-0.1l-0.6,1.6h14.2v-2.3H49.7c0,0.1,0,0.2,0,0.2H49.9z"/>
				<rect id="XMLID_3205_" x="48.6" y="220.1" fill="#FBEAB9" width="10.9" height="1.1"/>
				<rect id="XMLID_3204_" x="54.8" y="209.6" fill="#61C4EB" width="3.7" height="5.1"/>
				<rect id="XMLID_3203_" x="50.3" y="209.6" fill="#61C4EB" width="3.8" height="5.1"/>
				<path id="XMLID_3199_" fill="#FBEAB9" d="M54.1,209h-4.4v6.3h9.5V209h-4.4H54.1z M50.3,209.6h3.8v5.1h-3.8V209.6z M58.5,209.6
					v5.1h-3.7v-5.1H58.5z"/>
				<path id="XMLID_3198_" fill="#FBEAB9" d="M63.4,210.5C63.4,210.5,63.4,210.5,63.4,210.5c-1.6,0-2.8,1.2-2.8,2.8v7.9h2.8V210.5z"
					/>
				<path id="XMLID_3197_" fill="#FBEAB9" d="M65.6,215.6c0.1,0.1,0.2,0.3,0.2,0.4C65.8,215.8,65.8,215.7,65.6,215.6z"/>
				<path id="XMLID_3194_" fill="#CAA83C" d="M63.4,210.5c1.1,0,2.1,0.7,2.5,1.7c0.1,0.3,0.2,0.7,0.2,1.1v7.9H67v-1.1h11.5v-14H63.4
					V210.5z M67.3,209h4.4h0.7h4.4v6.3h-9.5V209z"/>
				<polygon id="XMLID_3193_" fill="#D4C69F" points="63.4,206 78.5,206 79,206 79,203.7 73.7,203.7 63.4,203.7 				"/>
				<polygon id="XMLID_3192_" fill="#D4C69F" points="67,221.1 78.5,221.1 78.8,221.1 78.8,221.1 78.8,220.1 78.8,220.1 78.5,220.1 
					67,220.1 				"/>
				<path id="XMLID_3188_" fill="#D4C69F" d="M76.7,209h-4.4h-0.7h-4.4v6.3h9.5V209z M67.9,209.6h3.8v5.1h-3.8V209.6z M76.1,214.7
					h-3.7v-5.1h3.7V214.7z"/>
				<rect id="XMLID_3187_" x="67.9" y="209.6" fill="#3BB2D3" width="3.8" height="5.1"/>
				<rect id="XMLID_3186_" x="72.4" y="209.6" fill="#3BB2D3" width="3.7" height="5.1"/>
				<path id="XMLID_3183_" fill="#D4C69F" d="M66.1,213.3c0-0.4-0.1-0.7-0.2-1.1c-0.4-1-1.4-1.7-2.5-1.7v0v10.6h2.7V213.3z
					 M64.6,216c0-0.2,0.1-0.3,0.2-0.4c0.1-0.1,0.3-0.2,0.4-0.2c0.2,0,0.3,0.1,0.4,0.2s0.2,0.3,0.2,0.4c0,0.3-0.3,0.6-0.6,0.6
					c-0.1,0-0.2,0-0.2,0C64.8,216.5,64.6,216.2,64.6,216z"/>
				<path id="XMLID_3182_" fill="#6D6347" d="M65.8,216c0-0.2-0.1-0.3-0.2-0.4s-0.3-0.2-0.4-0.2c-0.2,0-0.3,0.1-0.4,0.2
					c-0.1,0.1-0.2,0.3-0.2,0.4c0,0.3,0.2,0.5,0.4,0.6c0.1,0,0.2,0,0.2,0C65.6,216.6,65.8,216.3,65.8,216z"/>
				<path id="XMLID_3178_" fill="#010101" d="M48.6,222.2v-1.1v-1.1v-12.7h0.1h0l0-0.1l0.5-1.2l0.6-1.6h0.1V204h-0.1
					c0-0.1,0-0.2,0-0.2c-0.1-0.7-0.8-1.2-1.5-1.3v-0.4h-0.5v0.4c-0.9,0.1-1.5,0.7-1.5,1.5H46v0.5h0.2l1.1,2.8l0,0.1h0h0.1v12.7v2
					C47.9,221.9,48.3,222,48.6,222.2z M48.3,207.2h-0.2v-2.8h1.4L48.3,207.2z M46.5,204.4h1.4v2.8h-0.2L46.5,204.4z"/>
				<path id="XMLID_3177_" fill="#31302F" d="M47.4,222.1c-0.2,0.2-0.4,0.4-0.7,0.8h0.7h1.1h0.7c0,0-0.3-0.5-0.7-0.8
					C48.3,222,47.9,221.9,47.4,222.1z"/>
				<polygon id="XMLID_3176_" fill="#F0C841" points="47.9,207.2 47.9,204.4 46.5,204.4 47.7,207.2 				"/>
				<polygon id="XMLID_3175_" fill="#F0C841" points="49.5,204.4 48.1,204.4 48.1,207.2 48.3,207.2 				"/>
			</g>
		</g>
	</g>
</g>
<g id="envelope_1_">
	<path id="envelope" fill="#F2F2F2" d="M211.1,30l-27.5-7.3l40.3-18.1C223.9,4.6,211.1,30,211.1,30z M213,34.3L185.5,27L197.2,53
		l40.3-18.1L225.8,8.9L213,34.3z"/>
</g>
<g id="logo_1_">
	<g id="XMLID_1_">
		<g id="XMLID_273_">
			<g id="XMLID_274_">
				<path id="XMLID_330_" fill="#484848" d="M74.8,246.3c2.2,0,3.3,0.8,5.1,2.3c0.6,0.5,1.2,0.7,1.8,0.7c1.2,0,2.6-0.9,2.6-2.4
					c0-0.7-0.2-1.4-0.7-1.9c-1.8-2-4.7-4-8.7-4c-6.3,0-11.5,4.7-11.5,12.5v4.1c0,7.8,5.1,12.6,11.5,12.6c4.5,0,7-2.2,8.7-4
					c0.5-0.6,0.7-1.3,0.7-1.8c0-1.8-1.7-2.5-2.6-2.5c-0.7,0-1.4,0.4-1.8,0.7c-1.8,1.5-2.9,2.3-5.1,2.3c-3.3,0-6-2.4-6-7v-4.9
					C68.8,248.7,71.5,246.3,74.8,246.3z"/>
				<path id="XMLID_325_" fill="#484848" d="M96.9,241.9h-5.8c-1.4,0-2.6,1.2-2.6,2.6c0,1.4,1.2,2.6,2.6,2.6h5.6
					c3.3,0,4.9,1.5,4.9,4.9v1.2c-1.6-1-2.8-1.5-4.9-1.5c-5,0-9,4-9,9c0,5.4,4.4,9.7,9.7,9.7c5.4,0,9.7-4.4,9.7-9.7
					c0-0.6,0-8.5,0-8.5C107.1,245.7,103.3,241.9,96.9,241.9z M97.1,265.5c-2.5,0-4.5-2-4.5-4.6c0-2.5,2-4.5,4.5-4.5s4.5,2,4.5,4.5
					C101.6,263.5,99.6,265.5,97.1,265.5z"/>
				<path id="XMLID_324_" fill="#484848" d="M137.4,241.1c-3.6,0-5.7,1.8-6.6,2.6c-1.9-1.6-4.5-2.6-7.2-2.6
					c-6.1,0-11.1,4.6-11.1,12.3v13.4c0,1.5,1.2,2.8,2.8,2.8c1.5,0,2.8-1.2,2.8-2.8v-14c0-4.2,2.5-6.5,5.6-6.5c3.1,0,5.6,2.2,5.6,6.5
					v14c0,1.5,1.3,2.8,2.8,2.8c1.5,0,2.8-1.2,2.8-2.8v-13.4c0-1.7-0.3-4.3-1-5.7c1-0.8,2.3-1.3,3.6-1.3c3.1,0,5.6,2.2,5.6,6.5v14
					c0,1.5,1.2,2.8,2.8,2.8c1.5,0,2.8-1.2,2.8-2.8v-13.4C148.5,245.7,143.5,241.1,137.4,241.1z"/>
				<path id="XMLID_321_" fill="#484848" d="M165.5,241.1c-6.2,0-11.5,4.7-11.5,12.6v26.9c0,1.5,1.3,2.8,2.8,2.8
					c1.5,0,2.8-1.2,2.8-2.8V268c2,1.5,3.9,2.4,6.6,2.4c6,0,10.8-4.5,10.8-12v-4.7C177,245.8,171.8,241.1,165.5,241.1z M171.4,258.1
					c0,4.5-2.6,7-5.9,7c-3.3,0-6-2.8-6-6.1v-5.7c0-4.5,2.7-7,6-7c3.3,0,5.9,2.4,5.9,7V258.1z"/>
				<path id="XMLID_320_" fill="#484848" d="M202.2,241.9c-1.5,0-2.8,1.2-2.8,2.8v13.7c0,4.2-2.6,6.7-5.9,6.7c-3.3,0-6-2.5-6-6.7
					v-13.7c0-1.5-1.2-2.8-2.7-2.8c-1.5,0-2.8,1.2-2.8,2.8v13.1c0,7.8,5.2,12.5,11.5,12.5c6.3,0,11.4-4.7,11.4-12.5v-13.1
					C205,243.1,203.8,241.9,202.2,241.9z"/>
				<path id="XMLID_319_" fill="#484848" d="M218.2,252.1c-1.8-0.4-3-1-3-2.5c0-1.3,0.8-2.4,2.8-2.4h2.3c1.4,0,2.6-1.2,2.6-2.6
					c0-1.5-1.2-2.6-2.6-2.6h-2c-5.3,0-8.6,3.5-8.6,7.7c0,3.8,2.7,6.8,7.3,7.8c1.8,0.4,3.8,1.3,3.8,3.8c0,2.2-1.5,3.9-4.1,3.9
					c-1.4,0-2.3-0.8-3.2-1.9c-0.4-0.6-1.1-0.9-1.9-0.9c-1.7,0-2.6,1.2-2.6,2.5c0,0.7,0.3,1.4,0.7,1.9c1.9,2.6,4.6,3.7,7.3,3.7
					c5,0,9.2-4.1,9.2-9.1C226.2,256.4,223.2,253.3,218.2,252.1z"/>
				<path id="XMLID_279_" fill="#F05975" d="M17.5,274.5L17.5,274.5c0.9,0.9,2,1.5,3.3,1.8c5.4,1.4,10.7,2,15.7,2
					c5.1,0,10-0.7,14.7-2c1.3-0.3,2.4-0.9,3.2-1.8c0.9-0.9,1.5-1.9,1.8-3.2c1.3-5,1.9-10.1,1.9-15.2c0-5.1-0.6-10.2-1.9-15.2
					c-0.3-1.3-0.9-2.4-1.8-3.2c-0.8-0.8-1.9-1.4-3.1-1.8c-5.1-1.5-10.2-2.3-15.3-2.3c-5.1,0-10.2,0.8-15.3,2.3
					c-1.3,0.4-2.3,1-3.1,1.8c-0.8,0.8-1.4,1.9-1.8,3.2c-1.4,5.1-2,10.2-1.9,15.3c0.1,5.1,0.7,10.1,1.9,15.1
					C16.1,272.5,16.7,273.6,17.5,274.5z M19.8,241.9c0.2-0.6,0.4-1,0.7-1.3c0.3-0.3,0.8-0.6,1.4-0.7c4.7-1.4,9.4-2.1,14.1-2.1
					c4.7,0,9.4,0.7,14.1,2.1c0.6,0.2,1.1,0.4,1.4,0.8c0.3,0.3,0.5,0.7,0.7,1.3c1.2,4.7,1.8,9.5,1.8,14.2c0,4.7-0.6,9.4-1.8,14.2
					c-0.1,0.6-0.4,1-0.7,1.3c-0.3,0.3-0.8,0.6-1.3,0.7c-4.4,1.2-8.9,1.8-13.6,1.8c-4.7,0-9.6-0.6-14.7-1.8c-0.6-0.1-1-0.4-1.3-0.7
					l0,0c-0.3-0.3-0.5-0.7-0.6-1.3c-1.1-4.8-1.8-9.5-1.8-14.2C17.9,251.3,18.5,246.6,19.8,241.9z"/>
				<path id="XMLID_277_" fill="#F05975" d="M55.5,283l-14,3.7c-0.2-2.3-1.6-3.9-3.3-4.6c-0.7-0.3-1.5-0.4-2.2-0.4
					c-0.8,0-1.5,0.1-2.2,0.4c-1.7,0.7-3.1,2.2-3.3,4.5l-14-3.6c-1.1-0.3-2.2,0.4-2.5,1.5c-0.3,1.1,0.4,2.2,1.5,2.5l16.2,4.2
					c0.2,0.1,0.4,0.1,0.7,0.1h0.3c1.1,0,2.1-0.9,2.1-2.1v-2c0-0.7,0.3-1.2,0.8-1.3c0.2-0.1,0.4-0.1,0.6-0.1c0.2,0,0.4,0,0.6,0.1
					c0.4,0.2,0.7,0.6,0.7,1.3v2c0,1.1,0.9,2.1,2.1,2.1h0.5v0c0.2,0,0.4,0,0.5-0.1l16.1-4.2c1.1-0.3,1.8-1.4,1.5-2.5
					C57.8,283.4,56.6,282.7,55.5,283z"/>
				<path id="XMLID_276_" fill="#484848" d="M36,249.4c-1.4,0-2.6,1.2-2.6,2.6v15.7c0,1.5,1.2,2.6,2.6,2.6c1.5,0,2.6-1.2,2.6-2.6
					v-15.7C38.6,250.6,37.5,249.4,36,249.4z"/>
				<path id="XMLID_275_" fill="#484848" d="M36,246.8c1.6,0,2.9-1.3,2.9-2.9c0-1.6-1.3-2.9-2.9-2.9c-1.6,0-2.9,1.3-2.9,2.9
					C33.1,245.5,34.4,246.8,36,246.8z"/>
			</g>
		</g>
	</g>
</g>
</svg>
